Patient4_TMGait_0pt5_01_right_07_EMG.mot
version=1
nRows=30
nColumns=33
inDegrees=no
endheader
time	1LAddLong	2LGlutMax	3LGlutMed	4LIliopsoas	5LSemiMemb	6LBicFemLong	7LRecFem	8LVastMed	9LVastLat	10LGasMed	11LTibAnt	12lTibPost	13LPeroneusLong	14LSol	15LExtDigLong	16LFlexDigLong	17RAddLong	18RGlutMax	19RGlutMed	20RIliopsoas	21RSemiMemb	22RBicFemLong	23RRecFem	24RVastMed	25RVastLat	26RGasMed	27RTibAnt	28RTibPost	29RPeroneusLong	30RSol	31RExtDigLong	32RFlexDigLong
8.7	0.00885	0.16571	0.10513	0.003815	0.069427	-0.035095	0.067902	0.000763	-0.010986	0.070801	0.005646	0.005493	-0.39017	-0.046692	0.031586	-0.005035	-0.12421	-0.20371	-0.54352	0.097656	0.020294	-0.045013	0.10223	0.050812	-0.009155	0.001526	-0.55023	-0.008545	-0.053558	0.026855	0.001526	0.006561
8.701	0.007629	0.20371	0.072327	0.004425	0.031128	0.015717	0.030212	0.000458	0.024872	0.10147	0.007935	0.002136	0.085907	-0.16419	-0.018921	-0.01358	-0.12116	-0.21118	-0.29098	0.059662	0.042725	-0.007019	0.13519	0.042114	0.000305	0.003204	-0.95062	-0.011139	0.12878	0.010834	0	0.005341
8.702	-0.002441	0.21698	0.069885	-0.039368	0.019226	0.022736	0.067139	0.011749	0.025482	0.10681	0.011597	-0.002594	0.3981	-0.21759	0.002747	-0.027466	-0.069275	-0.17441	0.13382	-0.009613	0.064392	-0.015564	0.10895	0.058136	-0.016174	-0.000763	-1.0095	-0.015411	0.12634	0.071259	-0.000305	0.00473
8.703	0.001068	0.22095	0.040283	0.005646	0.015411	0.038147	0.073547	0.007019	0.034943	0.1828	0.03067	-0.001373	0.068359	-0.21301	-0.044556	-0.030365	-0.048828	-0.088348	-0.13382	-0.034943	0.056915	0.00473	0.14389	0.056915	-0.00824	-0.003204	-0.64453	-0.010986	0.005646	0.034485	-0.001068	0.003662
8.704	-0.014496	0.19501	-0.006561	-0.012665	-0.005493	0.028076	0.007477	0.01236	0.067291	0.18188	0.012817	-0.006561	0.1387	-0.041962	-0.069275	0.00824	-0.027161	-0.13596	-0.33356	-0.16403	0.072632	0.015869	0.0737	0.04303	-0.004883	0.000305	-0.26108	-0.009918	-0.081787	-0.064545	-0.001221	0.00885
8.705	-0.013428	0.14893	-0.01297	0.003815	-0.033569	-0.013123	-0.066681	0.025635	0.042725	0.1561	0.020447	0.001984	0.070953	0.088806	-0.061493	0.092621	-0.013428	-0.14938	-0.392	-0.16647	0.058594	0.033875	0.12283	-0.046082	-0.012817	0.00061	0.1297	-0.012207	-0.18631	-0.10651	-0.007629	0.005646
8.706	-0.008698	0.15396	-0.065613	-0.018921	-0.075531	0.046692	-0.008087	0.018463	0.010071	0.18356	0.047302	0.003815	-0.072327	0.072784	-0.042114	0.006561	0.048981	-0.14358	-0.35172	-0.043793	0.057373	0.011749	0.13229	0.017548	-0.012054	0.002747	0.28854	-0.014191	-0.19394	-0.11932	0	0.01709
8.707	-0.006409	0.18829	-0.02594	-0.014343	-0.075684	0.061035	0.033417	0.01297	0.054474	0.049133	0.022125	0.005798	-0.024719	0.088196	-0.009766	-0.020294	0.14938	-0.1886	-0.63705	0.036011	0.046539	0.022125	0.13611	-0.031891	-0.010986	0.002136	0.23254	-0.015106	-0.095367	-0.10651	0.000305	0.030518
8.708	0.00885	0.15106	-0.088654	0.001831	-0.014191	0.030823	-0.00824	0.001678	0.045624	-0.27268	-0.007782	0.005646	0.16571	0.11154	-0.015106	-0.014648	0.21347	-0.21332	-0.87448	0.075989	0.039063	-0.010986	0.079803	-0.03418	0.002594	-0.014343	0.23239	-0.012512	-0.1033	-0.1297	0.001221	0.045929
8.709	0.003204	0.13138	-0.077515	0.016632	0.068817	0.017548	-0.016479	0.000305	-0.050049	-0.48767	-0.008698	0.008392	0.043182	0.095825	0.001373	-0.020294	0.19989	-0.22553	-0.77454	0.073547	0.02182	-0.002136	0.13062	-0.005798	0.002747	-0.011444	-0.022278	-0.011749	-0.079498	-0.13611	-0.001526	0.076447
8.71	-0.009766	0.097961	-0.16754	0.016937	0.061188	0.05722	0.06958	0.005493	-0.043793	-0.30716	0.012054	0.008392	-0.018768	-0.11047	0.034332	0.002594	0.12329	-0.18204	-0.65521	0.079346	0.00885	-0.01709	0.18402	-0.025482	0.008392	-0.008545	-0.3038	-0.010223	-0.088806	-0.1326	-0.001831	0.074921
8.711	-0.009613	0.11108	-0.033569	0.010071	0.002747	0.05249	0.071106	0.007629	0.069275	-0.056915	0.035858	0.00473	0.006409	-0.13657	0.021362	-0.003967	0.069885	-0.10986	-0.45593	0.040741	-0.004272	-0.004272	0.19974	-0.086975	-0.008392	-0.008545	-0.93201	-0.008698	-0.12604	-0.041962	-0.001526	0.006409
8.712	-0.014038	0.1474	0.11963	-0.029144	-0.048065	0.02121	0.062866	0.00412	0.07019	-0.04776	0.01236	-0.003357	0.17212	0.041962	0.028381	0.007477	-0.010834	-0.16571	-0.39627	0.032959	-0.014954	0.00885	0.15411	-0.060425	-0.009003	-0.010376	-0.85846	-0.01358	-0.21378	0.10956	-0.000916	-0.019073
8.713	-0.022278	0.11398	0.069885	-0.03418	-0.072784	-0.017242	0.051575	0.005341	0.033722	-0.035858	0.001221	-0.003967	0.29663	0.16922	0.009613	0.009918	-0.083771	-0.16251	-0.50674	0.065308	-0.014343	0.020905	0.15427	-0.078125	0.002289	-0.011292	-0.26901	-0.009918	-0.24338	0.1471	-0.00061	-0.039368
8.714	-0.006866	0.11398	-0.05249	-0.027313	-0.099487	-0.060577	0.057373	-0.002289	0.029602	0.048828	-0.002747	0.009155	0.033417	0.12222	-0.028229	-0.011749	-0.09491	-0.1889	-0.62607	0.057678	-0.016785	0.035553	0.20706	-0.059662	0.029602	-0.014038	0.35416	-0.018921	-0.26611	0.05127	-0.001221	-0.044861
8.715	0.007019	0.071259	-0.12756	0.000305	-0.046234	-0.024719	0.044861	0.001678	0.042572	0.12955	0.012817	0.006409	-0.27557	0.007477	-0.030212	-0.001526	-0.089417	-0.19531	-0.56564	0.090637	-0.012054	0.042267	0.21164	-0.048065	0.005798	-0.007324	0.70297	-0.017242	-0.25482	0.03067	-0.002899	-0.056458
8.716	0.005035	0.10727	-0.003357	0.021973	0.00885	-0.015564	0.061798	-0.003967	0.031891	0.10727	0.003204	0.007477	-0.050354	0.050354	-0.014496	0.00412	-0.086365	-0.21149	-0.46799	0.069885	-0.024719	0.036316	0.21988	-0.009308	0.020599	-0.010681	0.49652	-0.013733	-0.23193	-0.069275	-0.005188	-0.094604
8.717	0.007477	0.095673	0.044556	-0.003662	0.062408	-0.013733	0.10544	-0.010681	0.014954	0.045013	-0.005798	0.00824	-0.027618	0.16235	0.030518	0.005035	-0.062561	-0.20035	-0.51025	0.064697	0.000458	0.038147	0.21835	-0.029602	0.006561	-0.011139	-0.074921	-0.007935	-0.177	-0.18753	-0.002747	-0.10437
8.718	0.005188	0.072632	-0.037689	-0.010986	0.072937	0.032959	0.095978	-0.003357	0.02243	-0.021515	-0.009766	0.000153	-0.006561	0.12253	-0.01709	0.00061	-0.036163	-0.23499	-0.53406	0.015259	0.013733	0.019531	0.18692	0.022125	0.005188	-0.023193	-0.007172	-0.011444	-0.19424	-0.25391	0.00061	-0.14847
8.719	0.010681	0.10513	-0.055084	-0.027618	0.059357	0.091858	0.077972	0.000916	0.041351	-0.097046	-0.003357	0.001984	0.036621	0.011902	-0.12466	0.004425	0.024567	-0.20798	-0.4747	-0.038605	0.019836	0.006866	0.17029	-0.019989	0.019226	-0.012207	0.30579	-0.014954	-0.16632	-0.22903	0.002441	-0.14893
8.72	0.006714	0.10086	-0.072327	-0.022736	0.039063	0.051575	0.070038	-0.001068	0.045319	-0.16037	0.016937	0.000458	0.005035	0.086365	-0.06897	-0.005035	0.007477	-0.12466	-0.4393	-0.046997	0.011597	0.000305	0.1326	0.009613	0.008087	-0.01297	0.043793	-0.00412	-0.098419	-0.16083	-0.001526	-0.16434
8.721	-0.038757	0.10239	-0.059509	-0.000458	0.028381	0.046844	0.07782	-0.005493	0.043945	-0.12756	0.030212	0.002136	-0.092926	0.085754	-0.037994	0.006714	-0.019684	-0.20111	-0.52078	0.005798	0.006561	0.015259	0.12619	-0.040131	0.020447	-0.007019	0.068054	-0.002747	-0.017548	-0.16403	0.003052	-0.18616
8.722	0.031738	0.11734	-0.024872	0.013123	0.005035	0.065002	0.058746	0.001221	0.032959	-0.15427	0.019836	0.003662	0.020294	-0.078735	-0.065002	0.005035	-0.041046	-0.12894	-0.4306	-0.018616	0.010834	0.027771	0.056915	-0.026245	0.016785	-0.000916	-0.071259	-0.000916	0.07431	-0.17807	0.000305	-0.14252
8.723	-0.005341	0.071564	-0.015869	0.006561	-0.0177	0.065613	0.087891	-0.005035	0.009766	-0.18372	0.016174	0.002136	-0.005493	-0.10498	0.01236	0.005798	-0.060577	-0.13825	-0.42725	-0.001678	0.010376	0.034637	-0.016022	-0.063934	0.005188	0.003967	-0.88623	-0.000916	0.077972	-0.09903	0.001678	-0.066528
8.724	-0.002136	0.088654	0.097961	0.017853	-0.017548	0.037537	0.10635	0.00473	-0.041046	-0.16083	0.016174	0.003204	0.048828	-0.077515	0.019226	-0.000153	-0.088959	-0.16968	-0.38452	0.00412	0.021667	0.048981	0.000458	-0.049286	0.005035	-0.008545	-0.73349	-0.000763	-0.081177	-0.041504	0.005188	-0.018158
8.725	0.002747	0.074768	0.077209	-0.005493	-0.035858	0.01297	0.087433	0.00351	-0.025024	-0.18036	0.016785	-0.002899	0.038452	-0.016479	0.026703	-0.032501	-0.09079	-0.14603	-0.29053	0.018616	-0.002441	0.017548	-0.013885	-0.081329	0.025787	-0.010071	-0.38742	0.004272	-0.13672	-0.06073	-0.000916	0.004272
8.726	0.002899	0.072784	0.031281	-0.002441	-0.075684	-0.035553	0.063629	0.001221	-0.009766	-0.028992	0.024872	-0.011902	-0.1059	0.11841	0.029755	-0.025024	-0.037384	-0.1326	-0.16449	-0.006256	0.011902	0.022736	-0.016174	-0.035095	0.020447	-0.014801	0.049591	-0.00061	-0.23956	0.058441	-0.00061	0.007935
8.727	0.003052	0.079956	0.062408	-0.00946	-0.018311	-0.11795	0.070343	-0.000153	0.009613	0.22858	0.032349	-0.016174	-0.20081	0.11215	0.13001	-0.97061	-0.019531	-0.11734	-0.023346	0.050049	-0.014343	0.047302	-0.020599	-0.064392	0.037689	-0.0177	0.22766	0.004272	-0.30334	0.25238	-0.001678	0.010376
8.728	0.014496	0.041351	0.02655	-0.00885	0.016479	-0.16403	0.084991	0	0.007782	0.3186	0.019684	0.00885	-0.2626	0.005188	0.12207	0.728	0.003815	-0.15488	-0.27588	0.000458	-0.041046	0.028381	0.052185	-0.053101	0.015869	-0.013885	0.31769	0.001373	-0.26749	0.23254	0.009918	0.030212
8.729	0.007935	0.037079	-0.020447	-0.006256	0.03006	-0.12161	0.10346	0.006866	0.018158	0.23438	-0.003357	0.25589	0.039063	-0.16968	0.075531	-0.14358	0.016327	-0.10269	-0.35553	-0.009766	-0.029297	0.021362	0.065155	-0.047455	0.021057	-0.011139	0.41702	0.007935	-0.27023	0.16312	-0.001831	0.049744
